<svg xmlns="http://www.w3.org/2000/svg" xmlns:xlink="http://www.w3.org/1999/xlink" width="2550" height="1152" viewBox="0 0 2550 1152">
  <defs>
    <clipPath id="clip-Business_Card_-_Front">
      <rect width="2550" height="1152"/>
    </clipPath>
  </defs>
  <g id="Business_Card_-_Front" data-name="Business Card - Front" clip-path="url(#clip-Business_Card_-_Front)">
    <rect width="2550" height="1152" fill="#f2f6f7"/>
    <g id="Text" transform="translate(236.2 206.564)">
      <path id="Path_8" data-name="Path 8" d="M39.2-67.8q2.5,0,5.1.25t5.05.7q2.45.45,4.7,1.1A23.858,23.858,0,0,1,58.1-64.2l-2,10.3A43.783,43.783,0,0,0,49-55.85a40.705,40.705,0,0,0-7.7-.75q-11.4,0-17.45,5.9T17.8-33.3q0,11.5,6.05,17.4T41.3-10a40.705,40.705,0,0,0,7.7-.75,43.783,43.783,0,0,0,7.1-1.95l2,10.3A23.859,23.859,0,0,1,54.05-.85Q51.8-.2,49.35.25T44.3.95q-2.6.25-5.1.25A41.263,41.263,0,0,1,24-1.4,31.362,31.362,0,0,1,12.9-8.6,30.174,30.174,0,0,1,6.1-19.5,39.962,39.962,0,0,1,3.8-33.3,39.962,39.962,0,0,1,6.1-47.1,30.174,30.174,0,0,1,12.9-58,31.362,31.362,0,0,1,24-65.2,41.263,41.263,0,0,1,39.2-67.8Zm92.4,34.5a39.116,39.116,0,0,1-2.25,13.35A32.6,32.6,0,0,1,122.85-9a30.5,30.5,0,0,1-10.5,7.45A35.057,35.057,0,0,1,98.1,1.2,35.057,35.057,0,0,1,83.85-1.55,31.018,31.018,0,0,1,73.3-9a31.541,31.541,0,0,1-6.5-10.95A39.918,39.918,0,0,1,64.6-33.3a40.05,40.05,0,0,1,2.2-13.3,31.455,31.455,0,0,1,6.5-11,31.018,31.018,0,0,1,10.55-7.45A35.057,35.057,0,0,1,98.1-67.8a35.057,35.057,0,0,1,14.25,2.75,30.5,30.5,0,0,1,10.5,7.45,32.5,32.5,0,0,1,6.5,11A39.245,39.245,0,0,1,131.6-33.3ZM98.1-9.8a19.115,19.115,0,0,0,8.55-1.8,17.325,17.325,0,0,0,6.1-4.95A21.318,21.318,0,0,0,116.4-24a34.487,34.487,0,0,0,1.2-9.3,34.487,34.487,0,0,0-1.2-9.3,21.318,21.318,0,0,0-3.65-7.45,17.325,17.325,0,0,0-6.1-4.95,19.115,19.115,0,0,0-8.55-1.8A19.115,19.115,0,0,0,89.55-55a17.325,17.325,0,0,0-6.1,4.95A21.318,21.318,0,0,0,79.8-42.6a34.487,34.487,0,0,0-1.2,9.3A34.487,34.487,0,0,0,79.8-24a21.318,21.318,0,0,0,3.65,7.45,17.325,17.325,0,0,0,6.1,4.95A19.115,19.115,0,0,0,98.1-9.8ZM198.5-66.6h12.6L216,0H202.3L200-41.4,185.3-11.2H170.9L156.2-41.4,153.9,0H140.2l4.9-66.6h12.6l20.4,43Zm75.7,21a19.3,19.3,0,0,1-2.3,9.6,20.271,20.271,0,0,1-6.3,6.85,28.7,28.7,0,0,1-9.45,4.1A48.33,48.33,0,0,1,244.5-23.7h-2.7V0h-14V-66.6H246a47.2,47.2,0,0,1,11.15,1.25,26.948,26.948,0,0,1,8.95,3.85,18.655,18.655,0,0,1,5.95,6.55A19.274,19.274,0,0,1,274.2-45.6Zm-14,0q0-5.2-3.85-7.65T245.9-55.7h-4.1v21.1h3.4q7,0,11-2.7T260.2-45.6Zm63.4-21h14V-24a27.127,27.127,0,0,1-1.9,10.35,22.438,22.438,0,0,1-5.4,7.95,23.909,23.909,0,0,1-8.65,5.1A34.852,34.852,0,0,1,310.1,1.2,34.737,34.737,0,0,1,298.5-.6a23.973,23.973,0,0,1-8.6-5.1,22.438,22.438,0,0,1-5.4-7.95A27.127,27.127,0,0,1,282.6-24V-66.6h14v43.2q0,6.3,3.4,9.85T310.1-10q6.7,0,10.1-3.55t3.4-9.85Zm73.5,0v11.2H378.7V0h-14V-55.4H346.3V-66.6Zm8.9,0h40v11.1H420v16.1h24.8v11.1H420v17.2h26.3V0H406ZM506.7-46.3a18.16,18.16,0,0,1-4,11.95,25.141,25.141,0,0,1-11.5,7.45L513.7,0H496.3L477-24.3h-4.5V0h-14V-66.6h19.9a48.757,48.757,0,0,1,11.4,1.25,26.981,26.981,0,0,1,8.95,3.8,18.345,18.345,0,0,1,5.85,6.35A18.11,18.11,0,0,1,506.7-46.3Zm-14,.3q0-5.1-4-7.4a20.719,20.719,0,0,0-10.4-2.3h-5.8v20.8h4.2q7.2,0,11.6-2.8A9.206,9.206,0,0,0,492.7-46Z" transform="translate(0 93)" fill="#134172"/>
      <path id="Path_7" data-name="Path 7" d="M39.592-68.478q2.525,0,5.151.253t5.1.707q2.475.455,4.747,1.111a24.1,24.1,0,0,1,4.09,1.565l-2.02,10.4a44.221,44.221,0,0,0-7.171-1.97,41.112,41.112,0,0,0-7.777-.757q-11.514,0-17.624,5.959t-6.11,17.574q0,11.615,6.11,17.574T41.713-10.1a41.112,41.112,0,0,0,7.777-.757,44.221,44.221,0,0,0,7.171-1.97l2.02,10.4A24.1,24.1,0,0,1,54.59-.859Q52.318-.2,49.843.252t-5.1.707q-2.626.253-5.151.253A41.676,41.676,0,0,1,24.24-1.414,31.676,31.676,0,0,1,13.029-8.686,30.476,30.476,0,0,1,6.161-19.695,40.361,40.361,0,0,1,3.838-33.633,40.361,40.361,0,0,1,6.161-47.571,30.476,30.476,0,0,1,13.029-58.58,31.676,31.676,0,0,1,24.24-65.852,41.676,41.676,0,0,1,39.592-68.478Zm93.324,34.845a39.507,39.507,0,0,1-2.272,13.483A32.923,32.923,0,0,1,124.079-9.09a30.8,30.8,0,0,1-10.605,7.525A35.408,35.408,0,0,1,99.081,1.212,35.408,35.408,0,0,1,84.688-1.566,31.329,31.329,0,0,1,74.033-9.09a31.856,31.856,0,0,1-6.565-11.059,40.318,40.318,0,0,1-2.222-13.483,40.451,40.451,0,0,1,2.222-13.433,31.77,31.77,0,0,1,6.565-11.11A31.329,31.329,0,0,1,84.688-65.7a35.408,35.408,0,0,1,14.393-2.777A35.408,35.408,0,0,1,113.474-65.7a30.8,30.8,0,0,1,10.605,7.525,32.825,32.825,0,0,1,6.565,11.11A39.637,39.637,0,0,1,132.916-33.633ZM99.081-9.9a19.307,19.307,0,0,0,8.635-1.818,17.5,17.5,0,0,0,6.161-5,21.531,21.531,0,0,0,3.686-7.524,34.832,34.832,0,0,0,1.212-9.393,34.832,34.832,0,0,0-1.212-9.393,21.531,21.531,0,0,0-3.686-7.525,17.5,17.5,0,0,0-6.161-5,19.307,19.307,0,0,0-8.635-1.818,19.307,19.307,0,0,0-8.636,1.818,17.5,17.5,0,0,0-6.161,5A21.531,21.531,0,0,0,80.6-43.026a34.832,34.832,0,0,0-1.212,9.393A34.832,34.832,0,0,0,80.6-24.24a21.531,21.531,0,0,0,3.687,7.524,17.5,17.5,0,0,0,6.161,5A19.307,19.307,0,0,0,99.081-9.9ZM188.769,0,157.358-44.036V0H143.824V-67.266h13.534L188.769-23.23V-67.266H202.3V0Z" transform="translate(1.792 196.775)" fill="#134172"/>
      <path id="Path_6" data-name="Path 6" d="M70.8-33.3a38.047,38.047,0,0,1-3.95,17.35A29.665,29.665,0,0,1,55.4-3.6L72,7.1l-6.8,10L41,1q-.8.1-1.8.15t-1.9.05A35.057,35.057,0,0,1,23.05-1.55,31.018,31.018,0,0,1,12.5-9,31.541,31.541,0,0,1,6-19.95,39.919,39.919,0,0,1,3.8-33.3,40.05,40.05,0,0,1,6-46.6a31.455,31.455,0,0,1,6.5-11,31.018,31.018,0,0,1,10.55-7.45A35.057,35.057,0,0,1,37.3-67.8a35.057,35.057,0,0,1,14.25,2.75,30.494,30.494,0,0,1,10.5,7.45,32.5,32.5,0,0,1,6.5,11A39.245,39.245,0,0,1,70.8-33.3ZM37.3-9.8a19.115,19.115,0,0,0,8.55-1.8,17.326,17.326,0,0,0,6.1-4.95A21.318,21.318,0,0,0,55.6-24a34.487,34.487,0,0,0,1.2-9.3,34.487,34.487,0,0,0-1.2-9.3,21.318,21.318,0,0,0-3.65-7.45A17.326,17.326,0,0,0,45.85-55a19.115,19.115,0,0,0-8.55-1.8A19.115,19.115,0,0,0,28.75-55a17.326,17.326,0,0,0-6.1,4.95A21.318,21.318,0,0,0,19-42.6a34.487,34.487,0,0,0-1.2,9.3A34.487,34.487,0,0,0,19-24a21.318,21.318,0,0,0,3.65,7.45,17.326,17.326,0,0,0,6.1,4.95A19.115,19.115,0,0,0,37.3-9.8Zm85.1-56.8h14V-24a27.127,27.127,0,0,1-1.9,10.35,22.438,22.438,0,0,1-5.4,7.95,23.909,23.909,0,0,1-8.65,5.1A34.852,34.852,0,0,1,108.9,1.2,34.738,34.738,0,0,1,97.3-.6a23.973,23.973,0,0,1-8.6-5.1,22.438,22.438,0,0,1-5.4-7.95A27.127,27.127,0,0,1,81.4-24V-66.6h14v43.2q0,6.3,3.4,9.85T108.9-10q6.7,0,10.1-3.55t3.4-9.85Zm27.8,0h40v11.1h-26v16.1H189v11.1H164.2v17.2h26.3V0H150.2ZM245.1-19a18.266,18.266,0,0,1-1.8,8.1,19.124,19.124,0,0,1-5.05,6.4A23.566,23.566,0,0,1,230.4-.3a32.772,32.772,0,0,1-10.2,1.5A50.555,50.555,0,0,1,209.55.05,42.828,42.828,0,0,1,199.7-3.3L202.6-14a48.292,48.292,0,0,0,8.05,2.9,34.988,34.988,0,0,0,9.15,1.2,14.7,14.7,0,0,0,8.15-2.05,6.665,6.665,0,0,0,3.15-5.95,7.119,7.119,0,0,0-3-5.9,40.67,40.67,0,0,0-9.2-4.8,65.8,65.8,0,0,1-7.8-3.75,25.162,25.162,0,0,1-5.7-4.35,17.629,17.629,0,0,1-3.55-5.35,16.894,16.894,0,0,1-1.25-6.65q0-9.2,6.25-14.15T223.6-67.8a45.674,45.674,0,0,1,9.9,1,35.089,35.089,0,0,1,8.7,3.2l-2.6,10.7a42.188,42.188,0,0,0-7.35-2.75,29.7,29.7,0,0,0-7.85-1.05,13.486,13.486,0,0,0-7.1,1.65,5.6,5.6,0,0,0-2.7,5.15,7.957,7.957,0,0,0,.45,2.8,5.681,5.681,0,0,0,1.65,2.25,17.161,17.161,0,0,0,3.15,2.1q1.95,1.05,4.95,2.35,4,1.7,7.65,3.6a31.378,31.378,0,0,1,6.45,4.4,19.99,19.99,0,0,1,4.5,5.8A16.365,16.365,0,0,1,245.1-19Zm56-47.6v11.2H282.7V0h-14V-55.4H250.3V-66.6Z" transform="translate(213.287 196.775)" fill="#239acc"/>
    </g>
    <g id="Arrow" transform="translate(1124 127.156)">
      <line id="Line_2" data-name="Line 2" x2="64.491" transform="translate(935.5 723.382)" fill="none" stroke="#ff0042" stroke-width="10"/>
      <path id="Path_5" data-name="Path 5" d="M1592.5,523.531l31.01,34.733-31.01,35.8" transform="translate(-624.754 165)" fill="none" stroke="#ff0042" stroke-width="10"/>
    </g>
    <path id="Path_550" data-name="Path 550" d="M29.5,101.5a2.792,2.792,0,0,1-2.2-.9,3.333,3.333,0,0,1-.8-2.3V35.9H3.4a2.886,2.886,0,0,1-2.05-.7,2.6,2.6,0,0,1-.75-2,2.6,2.6,0,0,1,.75-2,2.886,2.886,0,0,1,2.05-.7H55.6a2.811,2.811,0,0,1,2,.75,2.777,2.777,0,0,1,0,3.9,2.811,2.811,0,0,1-2,.75h-23V98.3a3.215,3.215,0,0,1-.85,2.3A2.95,2.95,0,0,1,29.5,101.5ZM89.7,51.3q17.5,0,17.5,18.8V98.4a3.149,3.149,0,0,1-.8,2.25,2.875,2.875,0,0,1-2.2.85,2.922,2.922,0,0,1-3.1-3.1V70.5q0-7.2-2.9-10.5T89,56.7q-7.2,0-11.55,4.4T73.1,72.9V98.4a3.149,3.149,0,0,1-.8,2.25,2.875,2.875,0,0,1-2.2.85A2.922,2.922,0,0,1,67,98.4V33.1A2.922,2.922,0,0,1,70.1,30a2.875,2.875,0,0,1,2.2.85,3.149,3.149,0,0,1,.8,2.25V60.6a16.02,16.02,0,0,1,6.65-6.9A20.254,20.254,0,0,1,89.7,51.3Zm36.5,50.2a3.149,3.149,0,0,1-2.25-.8,3.006,3.006,0,0,1-.85-2.3V54.6a3.006,3.006,0,0,1,.85-2.3,3.149,3.149,0,0,1,2.25-.8,2.973,2.973,0,0,1,2.2.8,3.113,3.113,0,0,1,.8,2.3V98.4a3.113,3.113,0,0,1-.8,2.3A2.973,2.973,0,0,1,126.2,101.5Zm0-61.3a4.5,4.5,0,0,1-3.25-1.2,4.106,4.106,0,0,1-1.25-3.1,4.23,4.23,0,0,1,1.25-3.2,5,5,0,0,1,6.5,0,4.23,4.23,0,0,1,1.25,3.2,4.106,4.106,0,0,1-1.25,3.1A4.5,4.5,0,0,1,126.2,40.2ZM161,101.7a30.06,30.06,0,0,1-8.25-1.15,26.408,26.408,0,0,1-7.15-3.15,12.4,12.4,0,0,1-2.65-2.25A3.378,3.378,0,0,1,142.2,93a2.408,2.408,0,0,1,.65-1.7,2.044,2.044,0,0,1,1.55-.7,7.146,7.146,0,0,1,3.1,1.5,32.692,32.692,0,0,0,5.95,3.1,21.051,21.051,0,0,0,7.65,1.2q5.9,0,9.2-2.15a6.912,6.912,0,0,0,3.3-6.15,6.263,6.263,0,0,0-1.2-3.95,9.527,9.527,0,0,0-4-2.7,48.624,48.624,0,0,0-8-2.25q-8.9-2-12.65-5.15A10.471,10.471,0,0,1,144,65.6a12.561,12.561,0,0,1,5-10.35q5-3.95,13-3.95a27.35,27.35,0,0,1,7.45,1,19.09,19.09,0,0,1,6.15,2.9q3.5,2.4,3.5,4.7a2.589,2.589,0,0,1-.65,1.75,1.987,1.987,0,0,1-1.55.75,6.364,6.364,0,0,1-3.1-1.6,30.3,30.3,0,0,0-5.35-3.05,17.058,17.058,0,0,0-6.75-1.15,13.407,13.407,0,0,0-8.3,2.35,7.552,7.552,0,0,0-3.1,6.35,6.473,6.473,0,0,0,1.05,3.8,8.575,8.575,0,0,0,3.6,2.65A41.1,41.1,0,0,0,162.3,74a52.254,52.254,0,0,1,10.6,3.4,12.619,12.619,0,0,1,5.3,4.3,12.517,12.517,0,0,1-3.55,16.25Q169.5,101.7,161,101.7Zm60.4-.2a3.149,3.149,0,0,1-2.25-.8,3.006,3.006,0,0,1-.85-2.3V54.6a3.006,3.006,0,0,1,.85-2.3,3.149,3.149,0,0,1,2.25-.8,2.973,2.973,0,0,1,2.2.8,3.113,3.113,0,0,1,.8,2.3V98.4a3.113,3.113,0,0,1-.8,2.3A2.973,2.973,0,0,1,221.4,101.5Zm0-61.3a4.5,4.5,0,0,1-3.25-1.2,4.106,4.106,0,0,1-1.25-3.1,4.23,4.23,0,0,1,1.25-3.2,5,5,0,0,1,6.5,0,4.23,4.23,0,0,1,1.25,3.2,4.106,4.106,0,0,1-1.25,3.1A4.5,4.5,0,0,1,221.4,40.2Zm34.8,61.5a30.06,30.06,0,0,1-8.25-1.15,26.408,26.408,0,0,1-7.15-3.15,12.4,12.4,0,0,1-2.65-2.25A3.378,3.378,0,0,1,237.4,93a2.408,2.408,0,0,1,.65-1.7,2.044,2.044,0,0,1,1.55-.7,7.146,7.146,0,0,1,3.1,1.5,32.692,32.692,0,0,0,5.95,3.1,21.051,21.051,0,0,0,7.65,1.2q5.9,0,9.2-2.15a6.912,6.912,0,0,0,3.3-6.15,6.263,6.263,0,0,0-1.2-3.95,9.527,9.527,0,0,0-4-2.7,48.624,48.624,0,0,0-8-2.25q-8.9-2-12.65-5.15a10.471,10.471,0,0,1-3.75-8.45,12.561,12.561,0,0,1,5-10.35q5-3.95,13-3.95a27.35,27.35,0,0,1,7.45,1,19.089,19.089,0,0,1,6.15,2.9q3.5,2.4,3.5,4.7a2.589,2.589,0,0,1-.65,1.75,1.987,1.987,0,0,1-1.55.75,6.364,6.364,0,0,1-3.1-1.6,30.3,30.3,0,0,0-5.35-3.05,17.058,17.058,0,0,0-6.75-1.15,13.407,13.407,0,0,0-8.3,2.35,7.552,7.552,0,0,0-3.1,6.35,6.473,6.473,0,0,0,1.05,3.8,8.575,8.575,0,0,0,3.6,2.65A41.1,41.1,0,0,0,257.5,74a52.255,52.255,0,0,1,10.6,3.4,12.619,12.619,0,0,1,5.3,4.3,12.517,12.517,0,0,1-3.55,16.25Q264.7,101.7,256.2,101.7Zm76.6,0a22,22,0,0,1-11.75-3.1,20.811,20.811,0,0,1-7.85-8.8,29.824,29.824,0,0,1-2.8-13.3,29.824,29.824,0,0,1,2.8-13.3,20.811,20.811,0,0,1,7.85-8.8,23.723,23.723,0,0,1,23.45,0,20.386,20.386,0,0,1,7.85,8.8,30.283,30.283,0,0,1,2.75,13.3,30.283,30.283,0,0,1-2.75,13.3,20.386,20.386,0,0,1-7.85,8.8A22.074,22.074,0,0,1,332.8,101.7Zm-.1-5.4q7.7,0,11.9-5.1t4.2-14.7q0-9.4-4.25-14.65T332.8,56.6q-7.6,0-11.8,5.25T316.8,76.5q0,9.6,4.1,14.7T332.7,96.3Zm71.5-44.8a2.922,2.922,0,0,1,3.1,3.1V98.4a2.922,2.922,0,0,1-3.1,3.1,2.75,2.75,0,0,1-2.1-.85,3.149,3.149,0,0,1-.8-2.25V92.3a16.062,16.062,0,0,1-6.55,7,19.28,19.28,0,0,1-9.65,2.4q-8.6,0-12.95-4.75T367.8,82.9V54.6a2.922,2.922,0,0,1,3.1-3.1,2.875,2.875,0,0,1,2.2.85,3.149,3.149,0,0,1,.8,2.25V82.5q0,7.1,2.85,10.45t8.95,3.35a14.836,14.836,0,0,0,11.25-4.45Q401.2,87.4,401.2,80V54.6a3.149,3.149,0,0,1,.8-2.25A2.875,2.875,0,0,1,404.2,51.5Zm41.7,0a4.232,4.232,0,0,1,2.7.5,2.34,2.34,0,0,1,.8,2q0,2.5-3,2.8l-3,.3q-7.1.7-10.55,5.1a16.207,16.207,0,0,0-3.45,10.3V98.4a3.113,3.113,0,0,1-.8,2.3,2.973,2.973,0,0,1-2.2.8,3.149,3.149,0,0,1-2.25-.8,3.006,3.006,0,0,1-.85-2.3V54.6a3.006,3.006,0,0,1,.85-2.3,3.149,3.149,0,0,1,2.25-.8,2.84,2.84,0,0,1,2.1.8,2.973,2.973,0,0,1,.8,2.2V61q4.1-8.6,15.2-9.4Zm57.6,44.9q2.8.3,2.8,2.6a2.279,2.279,0,0,1-.9,1.9,4.385,4.385,0,0,1-2.9.6l-2.8-.2q-7.6-.5-11.25-4.65T484.8,84V57.4h-7.6a2.682,2.682,0,0,1-1.9-.65,2.273,2.273,0,0,1-.7-1.75,2.437,2.437,0,0,1,.7-1.8,2.567,2.567,0,0,1,1.9-.7h7.6V40.1a3.113,3.113,0,0,1,.8-2.3,2.973,2.973,0,0,1,2.2-.8,3.149,3.149,0,0,1,2.25.8,3.006,3.006,0,0,1,.85,2.3V52.5H503a2.706,2.706,0,0,1,2,.7,2.437,2.437,0,0,1,.7,1.8,2.273,2.273,0,0,1-.7,1.75,2.832,2.832,0,0,1-2,.65H490.9V84.3q0,6.2,2.4,8.85t7.5,3.05Zm48.8-5.8a1.988,1.988,0,0,1,1.55.75,2.589,2.589,0,0,1,.65,1.75q0,2.2-3.4,4.3a29.186,29.186,0,0,1-15.2,4.3q-11.1,0-17.5-6.7T512,76.6a29.464,29.464,0,0,1,2.85-13.25,21.189,21.189,0,0,1,8-8.9A22.25,22.25,0,0,1,534.7,51.3q9.4,0,14.85,6.05T555,74a3.761,3.761,0,0,1-.8,2.65,3.436,3.436,0,0,1-2.6.85H518.3q.3,9.2,4.8,14t12.7,4.8a19.636,19.636,0,0,0,7.2-1.15,48.03,48.03,0,0,0,6.2-3.05A7.146,7.146,0,0,1,552.3,90.6ZM534.7,56.3q-7,0-11.2,4.4t-5,12.3h30.9q-.2-8-4-12.35T534.7,56.3Zm52.4,45.4a22.264,22.264,0,0,1-11.8-3.1,20.7,20.7,0,0,1-7.9-8.8,29.346,29.346,0,0,1-2.8-13.1,29.464,29.464,0,0,1,2.85-13.25,21.525,21.525,0,0,1,8-8.95,21.985,21.985,0,0,1,11.85-3.2,27.52,27.52,0,0,1,7.4,1,20.212,20.212,0,0,1,6.4,3,11.251,11.251,0,0,1,2.55,2.35,3.8,3.8,0,0,1,.75,2.25,2.668,2.668,0,0,1-.6,1.8,1.9,1.9,0,0,1-1.5.7q-1,0-3.2-1.7a26.063,26.063,0,0,0-5.2-3,16.149,16.149,0,0,0-6.3-1.1q-7.8,0-12.2,5.35T571,76.7q0,9.3,4.35,14.45T587.5,96.3a16.068,16.068,0,0,0,6.35-1.1,40.539,40.539,0,0,0,5.55-3q.9-.6,1.75-1.1a2.939,2.939,0,0,1,1.35-.5,2,2,0,0,1,1.6.7,2.523,2.523,0,0,1,.6,1.7,3.322,3.322,0,0,1-.7,2.1,13.2,13.2,0,0,1-2.7,2.3,21,21,0,0,1-6.55,3.15A26.621,26.621,0,0,1,587.1,101.7Zm50.8-50.4q17.5,0,17.5,18.8V98.4a3.149,3.149,0,0,1-.8,2.25,2.875,2.875,0,0,1-2.2.85,2.922,2.922,0,0,1-3.1-3.1V70.5q0-7.2-2.9-10.5t-9.2-3.3q-7.2,0-11.55,4.4T621.3,72.9V98.4a3.149,3.149,0,0,1-.8,2.25,2.875,2.875,0,0,1-2.2.85,2.922,2.922,0,0,1-3.1-3.1V33.1a2.922,2.922,0,0,1,3.1-3.1,2.875,2.875,0,0,1,2.2.85,3.149,3.149,0,0,1,.8,2.25V60.6a16.02,16.02,0,0,1,6.65-6.9A20.254,20.254,0,0,1,637.9,51.3Zm56.1,0q17.5,0,17.5,18.8V98.4a3.149,3.149,0,0,1-.8,2.25,2.875,2.875,0,0,1-2.2.85,2.922,2.922,0,0,1-3.1-3.1V70.5q0-7.2-2.9-10.5t-9.2-3.3q-7.2,0-11.55,4.4T677.4,72.9V98.4a3.149,3.149,0,0,1-.8,2.25,2.875,2.875,0,0,1-2.2.85,2.922,2.922,0,0,1-3.1-3.1V54.6a2.922,2.922,0,0,1,3.1-3.1,2.84,2.84,0,0,1,2.1.8,2.973,2.973,0,0,1,.8,2.2v6.3a16.2,16.2,0,0,1,6.65-7.05A20.129,20.129,0,0,1,694,51.3Zm36.5,50.2a3.149,3.149,0,0,1-2.25-.8,3.006,3.006,0,0,1-.85-2.3V54.6a3.006,3.006,0,0,1,.85-2.3,3.149,3.149,0,0,1,2.25-.8,2.973,2.973,0,0,1,2.2.8,3.113,3.113,0,0,1,.8,2.3V98.4a3.113,3.113,0,0,1-.8,2.3A2.973,2.973,0,0,1,730.5,101.5Zm0-61.3a4.5,4.5,0,0,1-3.25-1.2A4.106,4.106,0,0,1,726,35.9a4.23,4.23,0,0,1,1.25-3.2,5,5,0,0,1,6.5,0A4.23,4.23,0,0,1,735,35.9a4.106,4.106,0,0,1-1.25,3.1A4.5,4.5,0,0,1,730.5,40.2ZM769,101.7a22.264,22.264,0,0,1-11.8-3.1,20.7,20.7,0,0,1-7.9-8.8,29.346,29.346,0,0,1-2.8-13.1,29.464,29.464,0,0,1,2.85-13.25,21.525,21.525,0,0,1,8-8.95,21.985,21.985,0,0,1,11.85-3.2,27.52,27.52,0,0,1,7.4,1,20.212,20.212,0,0,1,6.4,3,11.251,11.251,0,0,1,2.55,2.35,3.8,3.8,0,0,1,.75,2.25,2.668,2.668,0,0,1-.6,1.8,1.9,1.9,0,0,1-1.5.7q-1,0-3.2-1.7a26.063,26.063,0,0,0-5.2-3,16.149,16.149,0,0,0-6.3-1.1q-7.8,0-12.2,5.35T752.9,76.7q0,9.3,4.35,14.45T769.4,96.3a16.068,16.068,0,0,0,6.35-1.1,40.539,40.539,0,0,0,5.55-3q.9-.6,1.75-1.1a2.939,2.939,0,0,1,1.35-.5,2,2,0,0,1,1.6.7,2.523,2.523,0,0,1,.6,1.7,3.322,3.322,0,0,1-.7,2.1,13.2,13.2,0,0,1-2.7,2.3,21,21,0,0,1-6.55,3.15A26.621,26.621,0,0,1,769,101.7Zm47.3-50.4q8.8,0,13.15,4.6t4.35,13.9V98.3a3.149,3.149,0,0,1-.8,2.25,3.272,3.272,0,0,1-4.4,0,3.149,3.149,0,0,1-.8-2.25v-6a15.723,15.723,0,0,1-6.1,6.95,17.256,17.256,0,0,1-9.2,2.45,19.372,19.372,0,0,1-8.6-1.9,15.162,15.162,0,0,1-6.15-5.3A13.305,13.305,0,0,1,795.5,87q0-5.4,2.8-8.4t9.3-4.3A97.407,97.407,0,0,1,825.7,73h2.1V69.3q0-6.6-2.7-9.65t-8.5-3.05a27.611,27.611,0,0,0-14.1,3.9q-.3.2-1.55,1.05a4.047,4.047,0,0,1-2.15.85,2.088,2.088,0,0,1-1.65-.75,2.725,2.725,0,0,1-.65-1.85q0-2.2,3.5-4.3a31.245,31.245,0,0,1,7.8-3.1A34.2,34.2,0,0,1,816.3,51.3ZM813,96.4A13.99,13.99,0,0,0,823.65,92a15.67,15.67,0,0,0,4.15-11.2V77.5h-1.9a101.627,101.627,0,0,0-14.7.8q-5.1.8-7.2,2.75a7.332,7.332,0,0,0-2.1,5.65,8.771,8.771,0,0,0,3.2,6.95A11.7,11.7,0,0,0,813,96.4Zm39.8,5.1a3.149,3.149,0,0,1-2.25-.8,3.006,3.006,0,0,1-.85-2.3V33.1a3.006,3.006,0,0,1,.85-2.3,3.149,3.149,0,0,1,2.25-.8,2.845,2.845,0,0,1,3,3.1V98.4a2.845,2.845,0,0,1-3,3.1Zm65.4-5.1q2.8.3,2.8,2.6a2.279,2.279,0,0,1-.9,1.9,4.386,4.386,0,0,1-2.9.6l-2.8-.2q-7.6-.5-11.25-4.65T899.5,84V57.4h-7.6a2.682,2.682,0,0,1-1.9-.65,2.273,2.273,0,0,1-.7-1.75,2.437,2.437,0,0,1,.7-1.8,2.567,2.567,0,0,1,1.9-.7h7.6V40.1a3.113,3.113,0,0,1,.8-2.3,2.973,2.973,0,0,1,2.2-.8,3.149,3.149,0,0,1,2.25.8,3.006,3.006,0,0,1,.85,2.3V52.5h12.1a2.706,2.706,0,0,1,2,.7,2.437,2.437,0,0,1,.7,1.8,2.273,2.273,0,0,1-.7,1.75,2.832,2.832,0,0,1-2,.65H905.6V84.3q0,6.2,2.4,8.85t7.5,3.05ZM967,90.6a1.987,1.987,0,0,1,1.55.75,2.589,2.589,0,0,1,.65,1.75q0,2.2-3.4,4.3a29.186,29.186,0,0,1-15.2,4.3q-11.1,0-17.5-6.7t-6.4-18.4a29.464,29.464,0,0,1,2.85-13.25,21.189,21.189,0,0,1,8-8.9A22.251,22.251,0,0,1,949.4,51.3q9.4,0,14.85,6.05T969.7,74a3.761,3.761,0,0,1-.8,2.65,3.436,3.436,0,0,1-2.6.85H933q.3,9.2,4.8,14t12.7,4.8a19.636,19.636,0,0,0,7.2-1.15,48.033,48.033,0,0,0,6.2-3.05A7.146,7.146,0,0,1,967,90.6ZM949.4,56.3q-7,0-11.2,4.4t-5,12.3h30.9q-.2-8-4-12.35T949.4,56.3Zm48.7,45.4a30.06,30.06,0,0,1-8.25-1.15,26.409,26.409,0,0,1-7.15-3.15,12.4,12.4,0,0,1-2.65-2.25A3.378,3.378,0,0,1,979.3,93a2.408,2.408,0,0,1,.65-1.7,2.044,2.044,0,0,1,1.55-.7,7.146,7.146,0,0,1,3.1,1.5,32.689,32.689,0,0,0,5.95,3.1,21.051,21.051,0,0,0,7.65,1.2q5.9,0,9.2-2.15a6.912,6.912,0,0,0,3.3-6.15,6.264,6.264,0,0,0-1.2-3.95,9.526,9.526,0,0,0-4-2.7,48.623,48.623,0,0,0-8-2.25q-8.9-2-12.65-5.15a10.471,10.471,0,0,1-3.75-8.45,12.561,12.561,0,0,1,5-10.35q5-3.95,13-3.95a27.35,27.35,0,0,1,7.45,1,19.09,19.09,0,0,1,6.15,2.9q3.5,2.4,3.5,4.7a2.589,2.589,0,0,1-.65,1.75,1.987,1.987,0,0,1-1.55.75,6.363,6.363,0,0,1-3.1-1.6,30.3,30.3,0,0,0-5.35-3.05,17.058,17.058,0,0,0-6.75-1.15,13.407,13.407,0,0,0-8.3,2.35,7.552,7.552,0,0,0-3.1,6.35,6.473,6.473,0,0,0,1.05,3.8,8.575,8.575,0,0,0,3.6,2.65A41.1,41.1,0,0,0,999.4,74a52.252,52.252,0,0,1,10.6,3.4,12.619,12.619,0,0,1,5.3,4.3,12.517,12.517,0,0,1-3.55,16.25Q1006.6,101.7,998.1,101.7Zm52.7-5.3q2.8.3,2.8,2.6a2.279,2.279,0,0,1-.9,1.9,4.385,4.385,0,0,1-2.9.6l-2.8-.2q-7.6-.5-11.25-4.65T1032.1,84V57.4h-7.6a2.682,2.682,0,0,1-1.9-.65,2.273,2.273,0,0,1-.7-1.75,2.437,2.437,0,0,1,.7-1.8,2.567,2.567,0,0,1,1.9-.7h7.6V40.1a3.113,3.113,0,0,1,.8-2.3,2.973,2.973,0,0,1,2.2-.8,3.149,3.149,0,0,1,2.25.8,3.006,3.006,0,0,1,.85,2.3V52.5h12.1a2.706,2.706,0,0,1,2,.7,2.437,2.437,0,0,1,.7,1.8,2.273,2.273,0,0,1-.7,1.75,2.832,2.832,0,0,1-2,.65h-12.1V84.3q0,6.2,2.4,8.85t7.5,3.05Zm15.8,5.1a4.549,4.549,0,0,1-3.35-1.35,5.083,5.083,0,0,1,0-6.9,4.549,4.549,0,0,1,3.35-1.35,4.43,4.43,0,0,1,3.25,1.35,5.083,5.083,0,0,1,0,6.9A4.43,4.43,0,0,1,1066.6,101.5ZM100.1,167.8a2.592,2.592,0,0,1,2.6-1.9,3.248,3.248,0,0,1,2.15.8,2.509,2.509,0,0,1,.95,2,6.013,6.013,0,0,1-.2,1L82.4,235.3a3.269,3.269,0,0,1-1.35,1.7,3.769,3.769,0,0,1-2.05.6,3.429,3.429,0,0,1-3.2-2.3L54.9,176.1,33.8,235.3a3.353,3.353,0,0,1-1.3,1.7,3.527,3.527,0,0,1-2,.6,3.429,3.429,0,0,1-3.2-2.3L4.1,169.7a5.514,5.514,0,0,1-.2-1.1,2.419,2.419,0,0,1,.9-1.95,3.181,3.181,0,0,1,2.1-.75,2.684,2.684,0,0,1,1.6.5,3.338,3.338,0,0,1,1.1,1.4l21.1,60.6,21-59.8a3.453,3.453,0,0,1,1.25-1.8,3.142,3.142,0,0,1,1.85-.6,3.337,3.337,0,0,1,2,.65,3.611,3.611,0,0,1,1.3,1.85L79,228.4Zm49.2,58.8a1.987,1.987,0,0,1,1.55.75,2.589,2.589,0,0,1,.65,1.75q0,2.2-3.4,4.3a29.186,29.186,0,0,1-15.2,4.3q-11.1,0-17.5-6.7T109,212.6a29.463,29.463,0,0,1,2.85-13.25,21.189,21.189,0,0,1,8-8.9,22.251,22.251,0,0,1,11.85-3.15q9.4,0,14.85,6.05T152,210a3.761,3.761,0,0,1-.8,2.65,3.436,3.436,0,0,1-2.6.85H115.3q.3,9.2,4.8,14t12.7,4.8a19.635,19.635,0,0,0,7.2-1.15,48.03,48.03,0,0,0,6.2-3.05A7.146,7.146,0,0,1,149.3,226.6Zm-17.6-34.3q-7,0-11.2,4.4t-5,12.3h30.9q-.2-8-4-12.35T131.7,192.3Zm77.4-5q8.8,0,13.15,4.6t4.35,13.9v28.5a3.149,3.149,0,0,1-.8,2.25,3.272,3.272,0,0,1-4.4,0,3.149,3.149,0,0,1-.8-2.25v-6a15.722,15.722,0,0,1-6.1,6.95,17.256,17.256,0,0,1-9.2,2.45,19.371,19.371,0,0,1-8.6-1.9,15.162,15.162,0,0,1-6.15-5.3,13.305,13.305,0,0,1-2.25-7.5q0-5.4,2.8-8.4t9.3-4.3a97.406,97.406,0,0,1,18.1-1.3h2.1v-3.7q0-6.6-2.7-9.65t-8.5-3.05a27.612,27.612,0,0,0-14.1,3.9q-.3.2-1.55,1.05a4.047,4.047,0,0,1-2.15.85,2.088,2.088,0,0,1-1.65-.75,2.725,2.725,0,0,1-.65-1.85q0-2.2,3.5-4.3a31.245,31.245,0,0,1,7.8-3.1A34.2,34.2,0,0,1,209.1,187.3Zm-3.3,45.1a13.99,13.99,0,0,0,10.65-4.4,15.67,15.67,0,0,0,4.15-11.2v-3.3h-1.9a101.625,101.625,0,0,0-14.7.8q-5.1.8-7.2,2.75a7.332,7.332,0,0,0-2.1,5.65,8.771,8.771,0,0,0,3.2,6.95A11.7,11.7,0,0,0,205.8,232.4Zm59.5-45.1a20.436,20.436,0,0,1,11.3,3.15,20.784,20.784,0,0,1,7.6,8.9,31.094,31.094,0,0,1,2.7,13.35,30.179,30.179,0,0,1-2.7,13.15,20.112,20.112,0,0,1-18.9,11.85,19.634,19.634,0,0,1-10.2-2.55,16.014,16.014,0,0,1-6.5-7.45v24.7a3.149,3.149,0,0,1-.8,2.25,2.875,2.875,0,0,1-2.2.85,2.922,2.922,0,0,1-3.1-3.1V190.6a2.922,2.922,0,0,1,3.1-3.1,2.875,2.875,0,0,1,2.2.85,3.149,3.149,0,0,1,.8,2.25v6.7a16.014,16.014,0,0,1,6.5-7.45A19.634,19.634,0,0,1,265.3,187.3Zm-.9,45q7.7,0,11.95-5.15t4.25-14.45q0-9.5-4.25-14.8t-11.85-5.3q-7.6,0-11.75,5.2t-4.15,14.7q0,9.5,4.1,14.65T264.4,232.3Zm58.2-45a20.436,20.436,0,0,1,11.3,3.15,20.784,20.784,0,0,1,7.6,8.9,31.094,31.094,0,0,1,2.7,13.35,30.179,30.179,0,0,1-2.7,13.15,20.112,20.112,0,0,1-18.9,11.85,19.634,19.634,0,0,1-10.2-2.55,16.014,16.014,0,0,1-6.5-7.45v24.7a3.149,3.149,0,0,1-.8,2.25,2.875,2.875,0,0,1-2.2.85,2.922,2.922,0,0,1-3.1-3.1V190.6a2.922,2.922,0,0,1,3.1-3.1,2.875,2.875,0,0,1,2.2.85,3.149,3.149,0,0,1,.8,2.25v6.7a16.014,16.014,0,0,1,6.5-7.45A19.634,19.634,0,0,1,322.6,187.3Zm-.9,45q7.7,0,11.95-5.15t4.25-14.45q0-9.5-4.25-14.8t-11.85-5.3q-7.6,0-11.75,5.2t-4.15,14.7q0,9.5,4.1,14.65T321.7,232.3Zm58-44.8a4.232,4.232,0,0,1,2.7.5,2.34,2.34,0,0,1,.8,2q0,2.5-3,2.8l-3,.3q-7.1.7-10.55,5.1a16.207,16.207,0,0,0-3.45,10.3v25.9a3.113,3.113,0,0,1-.8,2.3,2.973,2.973,0,0,1-2.2.8,3.149,3.149,0,0,1-2.25-.8,3.006,3.006,0,0,1-.85-2.3V190.6a3.006,3.006,0,0,1,.85-2.3,3.149,3.149,0,0,1,2.25-.8,2.84,2.84,0,0,1,2.1.8,2.973,2.973,0,0,1,.8,2.2V197q4.1-8.6,15.2-9.4Zm47.5,39.1a1.987,1.987,0,0,1,1.55.75,2.589,2.589,0,0,1,.65,1.75q0,2.2-3.4,4.3a29.186,29.186,0,0,1-15.2,4.3q-11.1,0-17.5-6.7t-6.4-18.4a29.464,29.464,0,0,1,2.85-13.25,21.189,21.189,0,0,1,8-8.9,22.251,22.251,0,0,1,11.85-3.15q9.4,0,14.85,6.05T429.9,210a3.761,3.761,0,0,1-.8,2.65,3.436,3.436,0,0,1-2.6.85H393.2q.3,9.2,4.8,14t12.7,4.8a19.635,19.635,0,0,0,7.2-1.15,48.032,48.032,0,0,0,6.2-3.05A7.146,7.146,0,0,1,427.2,226.6Zm-17.6-34.3q-7,0-11.2,4.4t-5,12.3h30.9q-.2-8-4-12.35T409.6,192.3ZM462,237.7a22.264,22.264,0,0,1-11.8-3.1,20.7,20.7,0,0,1-7.9-8.8,32.135,32.135,0,0,1,.05-26.35,21.525,21.525,0,0,1,8-8.95,21.985,21.985,0,0,1,11.85-3.2,27.52,27.52,0,0,1,7.4,1,20.211,20.211,0,0,1,6.4,3,11.252,11.252,0,0,1,2.55,2.35,3.8,3.8,0,0,1,.75,2.25,2.668,2.668,0,0,1-.6,1.8,1.9,1.9,0,0,1-1.5.7q-1,0-3.2-1.7a26.064,26.064,0,0,0-5.2-3,16.149,16.149,0,0,0-6.3-1.1q-7.8,0-12.2,5.35t-4.4,14.75q0,9.3,4.35,14.45t12.15,5.15a16.067,16.067,0,0,0,6.35-1.1,40.538,40.538,0,0,0,5.55-3q.9-.6,1.75-1.1a2.939,2.939,0,0,1,1.35-.5,2,2,0,0,1,1.6.7,2.523,2.523,0,0,1,.6,1.7,3.322,3.322,0,0,1-.7,2.1,13.2,13.2,0,0,1-2.7,2.3,21,21,0,0,1-6.55,3.15A26.621,26.621,0,0,1,462,237.7Zm31.2-.2a3.149,3.149,0,0,1-2.25-.8,3.006,3.006,0,0,1-.85-2.3V190.6a3.006,3.006,0,0,1,.85-2.3,3.149,3.149,0,0,1,2.25-.8,2.973,2.973,0,0,1,2.2.8,3.113,3.113,0,0,1,.8,2.3v43.8a3.113,3.113,0,0,1-.8,2.3A2.973,2.973,0,0,1,493.2,237.5Zm0-61.3a4.5,4.5,0,0,1-3.25-1.2,4.106,4.106,0,0,1-1.25-3.1,4.23,4.23,0,0,1,1.25-3.2,5,5,0,0,1,6.5,0,4.23,4.23,0,0,1,1.25,3.2,4.106,4.106,0,0,1-1.25,3.1A4.5,4.5,0,0,1,493.2,176.2Zm38.3,11.1q8.8,0,13.15,4.6T549,205.8v28.5a3.149,3.149,0,0,1-.8,2.25,3.272,3.272,0,0,1-4.4,0,3.149,3.149,0,0,1-.8-2.25v-6a15.723,15.723,0,0,1-6.1,6.95,17.256,17.256,0,0,1-9.2,2.45,19.372,19.372,0,0,1-8.6-1.9,15.162,15.162,0,0,1-6.15-5.3,13.3,13.3,0,0,1-2.25-7.5q0-5.4,2.8-8.4t9.3-4.3a97.406,97.406,0,0,1,18.1-1.3H543v-3.7q0-6.6-2.7-9.65t-8.5-3.05a27.611,27.611,0,0,0-14.1,3.9q-.3.2-1.55,1.05a4.047,4.047,0,0,1-2.15.85,2.088,2.088,0,0,1-1.65-.75,2.725,2.725,0,0,1-.65-1.85q0-2.2,3.5-4.3a31.245,31.245,0,0,1,7.8-3.1A34.2,34.2,0,0,1,531.5,187.3Zm-3.3,45.1a13.99,13.99,0,0,0,10.65-4.4A15.67,15.67,0,0,0,543,216.8v-3.3h-1.9a101.626,101.626,0,0,0-14.7.8q-5.1.8-7.2,2.75a7.332,7.332,0,0,0-2.1,5.65,8.771,8.771,0,0,0,3.2,6.95A11.7,11.7,0,0,0,528.2,232.4Zm57.8,0q2.8.3,2.8,2.6a2.279,2.279,0,0,1-.9,1.9,4.386,4.386,0,0,1-2.9.6l-2.8-.2q-7.6-.5-11.25-4.65T567.3,220V193.4h-7.6a2.682,2.682,0,0,1-1.9-.65,2.273,2.273,0,0,1-.7-1.75,2.437,2.437,0,0,1,.7-1.8,2.567,2.567,0,0,1,1.9-.7h7.6V176.1a3.113,3.113,0,0,1,.8-2.3,2.973,2.973,0,0,1,2.2-.8,3.149,3.149,0,0,1,2.25.8,3.006,3.006,0,0,1,.85,2.3v12.4h12.1a2.706,2.706,0,0,1,2,.7,2.437,2.437,0,0,1,.7,1.8,2.273,2.273,0,0,1-.7,1.75,2.832,2.832,0,0,1-2,.65H573.4v26.9q0,6.2,2.4,8.85t7.5,3.05Zm48.8-5.8a1.987,1.987,0,0,1,1.55.75,2.589,2.589,0,0,1,.65,1.75q0,2.2-3.4,4.3a29.186,29.186,0,0,1-15.2,4.3q-11.1,0-17.5-6.7t-6.4-18.4a29.464,29.464,0,0,1,2.85-13.25,21.189,21.189,0,0,1,8-8.9,22.251,22.251,0,0,1,11.85-3.15q9.4,0,14.85,6.05T637.5,210a3.761,3.761,0,0,1-.8,2.65,3.436,3.436,0,0,1-2.6.85H600.8q.3,9.2,4.8,14t12.7,4.8a19.636,19.636,0,0,0,7.2-1.15,48.033,48.033,0,0,0,6.2-3.05A7.146,7.146,0,0,1,634.8,226.6Zm-17.6-34.3q-7,0-11.2,4.4T601,209h30.9q-.2-8-4-12.35T617.2,192.3Zm93.8-3a2.694,2.694,0,0,1,2.6-1.8,2.94,2.94,0,0,1,2,.8,2.463,2.463,0,0,1,.9,1.9,2.866,2.866,0,0,1-.3,1.3l-28.3,62.1a2.7,2.7,0,0,1-2.6,1.7,2.98,2.98,0,0,1-1.95-.7,2.226,2.226,0,0,1-.85-1.8,2.663,2.663,0,0,1,.3-1.2l7.1-15.5-20.5-44.6a2.663,2.663,0,0,1-.3-1.2,2.558,2.558,0,0,1,1.05-2.05,3.513,3.513,0,0,1,2.25-.85,2.582,2.582,0,0,1,2.6,1.8l18,40.4Zm34.1,48.4a22,22,0,0,1-11.75-3.1,20.811,20.811,0,0,1-7.85-8.8,32.988,32.988,0,0,1,0-26.6,20.811,20.811,0,0,1,7.85-8.8,23.723,23.723,0,0,1,23.45,0,20.385,20.385,0,0,1,7.85,8.8,33.537,33.537,0,0,1,0,26.6,20.386,20.386,0,0,1-7.85,8.8A22.074,22.074,0,0,1,745.1,237.7Zm-.1-5.4q7.7,0,11.9-5.1t4.2-14.7q0-9.4-4.25-14.65T745.1,192.6q-7.6,0-11.8,5.25t-4.2,14.65q0,9.6,4.1,14.7T745,232.3Zm71.5-44.8a2.922,2.922,0,0,1,3.1,3.1v43.8a2.922,2.922,0,0,1-3.1,3.1,2.75,2.75,0,0,1-2.1-.85,3.149,3.149,0,0,1-.8-2.25v-6.1a16.062,16.062,0,0,1-6.55,7,19.28,19.28,0,0,1-9.65,2.4q-8.6,0-12.95-4.75T780.1,218.9V190.6a2.922,2.922,0,0,1,3.1-3.1,2.875,2.875,0,0,1,2.2.85,3.149,3.149,0,0,1,.8,2.25v27.9q0,7.1,2.85,10.45T798,232.3a14.836,14.836,0,0,0,11.25-4.45q4.25-4.45,4.25-11.85V190.6a3.149,3.149,0,0,1,.8-2.25A2.875,2.875,0,0,1,816.5,187.5Zm65.4,44.9q2.8.3,2.8,2.6a2.279,2.279,0,0,1-.9,1.9,4.386,4.386,0,0,1-2.9.6l-2.8-.2q-7.6-.5-11.25-4.65T863.2,220V193.4h-7.6a2.682,2.682,0,0,1-1.9-.65A2.273,2.273,0,0,1,853,191a2.437,2.437,0,0,1,.7-1.8,2.567,2.567,0,0,1,1.9-.7h7.6V176.1a3.113,3.113,0,0,1,.8-2.3,2.973,2.973,0,0,1,2.2-.8,3.149,3.149,0,0,1,2.25.8,3.006,3.006,0,0,1,.85,2.3v12.4h12.1a2.706,2.706,0,0,1,2,.7,2.437,2.437,0,0,1,.7,1.8,2.273,2.273,0,0,1-.7,1.75,2.832,2.832,0,0,1-2,.65H869.3v26.9q0,6.2,2.4,8.85t7.5,3.05Zm30.8-45.1q8.8,0,13.15,4.6t4.35,13.9v28.5a3.149,3.149,0,0,1-.8,2.25,3.272,3.272,0,0,1-4.4,0,3.149,3.149,0,0,1-.8-2.25v-6a15.723,15.723,0,0,1-6.1,6.95,17.256,17.256,0,0,1-9.2,2.45,19.372,19.372,0,0,1-8.6-1.9,15.162,15.162,0,0,1-6.15-5.3,13.305,13.305,0,0,1-2.25-7.5q0-5.4,2.8-8.4t9.3-4.3a97.406,97.406,0,0,1,18.1-1.3h2.1v-3.7q0-6.6-2.7-9.65T913,192.6a27.611,27.611,0,0,0-14.1,3.9q-.3.2-1.55,1.05a4.047,4.047,0,0,1-2.15.85,2.088,2.088,0,0,1-1.65-.75,2.725,2.725,0,0,1-.65-1.85q0-2.2,3.5-4.3a31.245,31.245,0,0,1,7.8-3.1A34.2,34.2,0,0,1,912.7,187.3Zm-3.3,45.1a13.99,13.99,0,0,0,10.65-4.4,15.67,15.67,0,0,0,4.15-11.2v-3.3h-1.9a101.626,101.626,0,0,0-14.7.8q-5.1.8-7.2,2.75a7.332,7.332,0,0,0-2.1,5.65,8.771,8.771,0,0,0,3.2,6.95A11.7,11.7,0,0,0,909.4,232.4Zm73.5-.2a3.435,3.435,0,0,1,1.3,2.5,2.764,2.764,0,0,1-.8,1.95,2.523,2.523,0,0,1-1.9.85,3.382,3.382,0,0,1-2.1-.9l-27.2-23.2v21a2.845,2.845,0,0,1-3,3.1,3.149,3.149,0,0,1-2.25-.8,3.006,3.006,0,0,1-.85-2.3V169.1a3.006,3.006,0,0,1,.85-2.3,3.149,3.149,0,0,1,2.25-.8,2.845,2.845,0,0,1,3,3.1v41.8l24.9-22.4a3.382,3.382,0,0,1,2.1-.9,2.9,2.9,0,0,1,2.9,2.9,2.851,2.851,0,0,1-1.2,2.4L959.3,212Zm14.7,5.3a3.149,3.149,0,0,1-2.25-.8,3.006,3.006,0,0,1-.85-2.3V190.6a3.006,3.006,0,0,1,.85-2.3,3.149,3.149,0,0,1,2.25-.8,2.973,2.973,0,0,1,2.2.8,3.113,3.113,0,0,1,.8,2.3v43.8a3.113,3.113,0,0,1-.8,2.3A2.973,2.973,0,0,1,997.6,237.5Zm0-61.3a4.5,4.5,0,0,1-3.25-1.2,4.106,4.106,0,0,1-1.25-3.1,4.23,4.23,0,0,1,1.25-3.2,5,5,0,0,1,6.5,0,4.23,4.23,0,0,1,1.25,3.2,4.106,4.106,0,0,1-1.25,3.1A4.5,4.5,0,0,1,997.6,176.2Zm41.8,11.1q17.5,0,17.5,18.8v28.3a3.149,3.149,0,0,1-.8,2.25,2.875,2.875,0,0,1-2.2.85,2.922,2.922,0,0,1-3.1-3.1V206.5q0-7.2-2.9-10.5t-9.2-3.3q-7.2,0-11.55,4.4t-4.35,11.8v25.5a3.149,3.149,0,0,1-.8,2.25,2.875,2.875,0,0,1-2.2.85,2.922,2.922,0,0,1-3.1-3.1V190.6a2.922,2.922,0,0,1,3.1-3.1,2.84,2.84,0,0,1,2.1.8,2.973,2.973,0,0,1,.8,2.2v6.3a16.2,16.2,0,0,1,6.65-7.05A20.129,20.129,0,0,1,1039.4,187.3Zm72,.2a2.922,2.922,0,0,1,3.1,3.1v43.6q0,10.6-5.25,16.05t-15.55,5.45a40.362,40.362,0,0,1-9.65-1.05,29.139,29.139,0,0,1-7.95-3.25q-3.6-2.2-3.6-4.3a2.54,2.54,0,0,1,.65-1.8,2.154,2.154,0,0,1,1.65-.7,3.918,3.918,0,0,1,1.65.55q1.05.55,1.45.75a43.741,43.741,0,0,0,7,3.15,27.388,27.388,0,0,0,8.9,1.25q7.3,0,11-3.9t3.7-11.6v-9.5a15.936,15.936,0,0,1-6.45,7.55,19.91,19.91,0,0,1-10.55,2.65,21.462,21.462,0,0,1-11.35-3,20.286,20.286,0,0,1-7.7-8.5,30.24,30.24,0,0,1,0-25.2,20.286,20.286,0,0,1,7.7-8.5,21.462,21.462,0,0,1,11.35-3,20.042,20.042,0,0,1,10.4,2.55,16.014,16.014,0,0,1,6.5,7.45v-6.7a3.149,3.149,0,0,1,.8-2.25A2.875,2.875,0,0,1,1111.4,187.5Zm-19.1,42.6q7.6,0,11.85-5t4.25-13.7q0-8.7-4.3-13.75t-11.8-5.05q-7.6,0-11.9,5t-4.3,13.8q0,8.8,4.3,13.75T1092.3,230.1Zm84.5,2.3q2.8.3,2.8,2.6a2.279,2.279,0,0,1-.9,1.9,4.385,4.385,0,0,1-2.9.6l-2.8-.2q-7.6-.5-11.25-4.65T1158.1,220V193.4h-7.6a2.682,2.682,0,0,1-1.9-.65,2.273,2.273,0,0,1-.7-1.75,2.437,2.437,0,0,1,.7-1.8,2.567,2.567,0,0,1,1.9-.7h7.6V176.1a3.113,3.113,0,0,1,.8-2.3,2.973,2.973,0,0,1,2.2-.8,3.149,3.149,0,0,1,2.25.8,3.006,3.006,0,0,1,.85,2.3v12.4h12.1a2.706,2.706,0,0,1,2,.7,2.437,2.437,0,0,1,.7,1.8,2.273,2.273,0,0,1-.7,1.75,2.832,2.832,0,0,1-2,.65h-12.1v26.9q0,6.2,2.4,8.85t7.5,3.05Zm34.3-45.1q17.5,0,17.5,18.8v28.3a3.149,3.149,0,0,1-.8,2.25,2.875,2.875,0,0,1-2.2.85,2.922,2.922,0,0,1-3.1-3.1V206.5q0-7.2-2.9-10.5t-9.2-3.3q-7.2,0-11.55,4.4t-4.35,11.8v25.5a3.149,3.149,0,0,1-.8,2.25,2.875,2.875,0,0,1-2.2.85,2.922,2.922,0,0,1-3.1-3.1V169.1a2.922,2.922,0,0,1,3.1-3.1,2.875,2.875,0,0,1,2.2.85,3.149,3.149,0,0,1,.8,2.25v27.5a16.019,16.019,0,0,1,6.65-6.9A20.255,20.255,0,0,1,1211.1,187.3Zm70.6,39.3a1.988,1.988,0,0,1,1.55.75,2.589,2.589,0,0,1,.65,1.75q0,2.2-3.4,4.3a29.186,29.186,0,0,1-15.2,4.3q-11.1,0-17.5-6.7t-6.4-18.4a29.463,29.463,0,0,1,2.85-13.25,21.189,21.189,0,0,1,8-8.9,22.251,22.251,0,0,1,11.85-3.15q9.4,0,14.85,6.05T1284.4,210a3.761,3.761,0,0,1-.8,2.65,3.436,3.436,0,0,1-2.6.85h-33.3q.3,9.2,4.8,14t12.7,4.8a19.636,19.636,0,0,0,7.2-1.15,48.025,48.025,0,0,0,6.2-3.05A7.146,7.146,0,0,1,1281.7,226.6Zm-17.6-34.3q-7,0-11.2,4.4t-5,12.3h30.9q-.2-8-4-12.35T1264.1,192.3Zm79.3,40.1q2.8.3,2.8,2.6a2.279,2.279,0,0,1-.9,1.9,4.385,4.385,0,0,1-2.9.6l-2.8-.2q-7.6-.5-11.25-4.65T1324.7,220V193.4h-7.6a2.682,2.682,0,0,1-1.9-.65,2.273,2.273,0,0,1-.7-1.75,2.437,2.437,0,0,1,.7-1.8,2.567,2.567,0,0,1,1.9-.7h7.6V176.1a3.113,3.113,0,0,1,.8-2.3,2.973,2.973,0,0,1,2.2-.8,3.149,3.149,0,0,1,2.25.8,3.006,3.006,0,0,1,.85,2.3v12.4h12.1a2.706,2.706,0,0,1,2,.7,2.437,2.437,0,0,1,.7,1.8,2.273,2.273,0,0,1-.7,1.75,2.832,2.832,0,0,1-2,.65h-12.1v26.9q0,6.2,2.4,8.85t7.5,3.05Zm14.7,5.1a3.149,3.149,0,0,1-2.25-.8,3.006,3.006,0,0,1-.85-2.3V190.6a3.006,3.006,0,0,1,.85-2.3,3.149,3.149,0,0,1,2.25-.8,2.973,2.973,0,0,1,2.2.8,3.113,3.113,0,0,1,.8,2.3v43.8a3.113,3.113,0,0,1-.8,2.3A2.973,2.973,0,0,1,1358.1,237.5Zm0-61.3a4.5,4.5,0,0,1-3.25-1.2,4.106,4.106,0,0,1-1.25-3.1,4.23,4.23,0,0,1,1.25-3.2,5,5,0,0,1,6.5,0,4.23,4.23,0,0,1,1.25,3.2,4.106,4.106,0,0,1-1.25,3.1A4.5,4.5,0,0,1,1358.1,176.2Zm71.5,11.1q16.1,0,16.1,18.8v28.3a3.149,3.149,0,0,1-.8,2.25,2.875,2.875,0,0,1-2.2.85,2.922,2.922,0,0,1-3.1-3.1V206.5q0-7.3-2.6-10.55t-8.3-3.25a13.058,13.058,0,0,0-10.35,4.4q-3.85,4.4-3.85,11.8v25.5a3.149,3.149,0,0,1-.8,2.25,2.875,2.875,0,0,1-2.2.85,2.922,2.922,0,0,1-3.1-3.1V206.5q0-7.3-2.6-10.55t-8.3-3.25a13.059,13.059,0,0,0-10.35,4.4q-3.85,4.4-3.85,11.8v25.5a3.149,3.149,0,0,1-.8,2.25,2.875,2.875,0,0,1-2.2.85,2.922,2.922,0,0,1-3.1-3.1V190.6a3.006,3.006,0,0,1,.85-2.3,3.149,3.149,0,0,1,2.25-.8,2.8,2.8,0,0,1,2.15.8,3.089,3.089,0,0,1,.75,2.2v6a15.207,15.207,0,0,1,6.05-6.85,17.553,17.553,0,0,1,9.15-2.35q11.5,0,14.9,9.6a15.788,15.788,0,0,1,6.4-7.05A19.038,19.038,0,0,1,1429.6,187.3Zm69.1,39.3a1.988,1.988,0,0,1,1.55.75,2.589,2.589,0,0,1,.65,1.75q0,2.2-3.4,4.3a29.186,29.186,0,0,1-15.2,4.3q-11.1,0-17.5-6.7t-6.4-18.4a29.463,29.463,0,0,1,2.85-13.25,21.189,21.189,0,0,1,8-8.9,22.251,22.251,0,0,1,11.85-3.15q9.4,0,14.85,6.05T1501.4,210a3.761,3.761,0,0,1-.8,2.65,3.436,3.436,0,0,1-2.6.85h-33.3q.3,9.2,4.8,14t12.7,4.8a19.636,19.636,0,0,0,7.2-1.15,48.025,48.025,0,0,0,6.2-3.05A7.146,7.146,0,0,1,1498.7,226.6Zm-17.6-34.3q-7,0-11.2,4.4t-5,12.3h30.9q-.2-8-4-12.35T1481.1,192.3Zm79.3,40.1q2.8.3,2.8,2.6a2.279,2.279,0,0,1-.9,1.9,4.385,4.385,0,0,1-2.9.6l-2.8-.2q-7.6-.5-11.25-4.65T1541.7,220V193.4h-7.6a2.682,2.682,0,0,1-1.9-.65,2.273,2.273,0,0,1-.7-1.75,2.437,2.437,0,0,1,.7-1.8,2.567,2.567,0,0,1,1.9-.7h7.6V176.1a3.113,3.113,0,0,1,.8-2.3,2.973,2.973,0,0,1,2.2-.8,3.149,3.149,0,0,1,2.25.8,3.006,3.006,0,0,1,.85,2.3v12.4h12.1a2.706,2.706,0,0,1,2,.7,2.437,2.437,0,0,1,.7,1.8,2.273,2.273,0,0,1-.7,1.75,2.832,2.832,0,0,1-2,.65h-12.1v26.9q0,6.2,2.4,8.85t7.5,3.05Zm30.9,5.3a22,22,0,0,1-11.75-3.1,20.811,20.811,0,0,1-7.85-8.8,32.988,32.988,0,0,1,0-26.6,20.811,20.811,0,0,1,7.85-8.8,23.723,23.723,0,0,1,23.45,0,20.386,20.386,0,0,1,7.85,8.8,33.537,33.537,0,0,1,0,26.6,20.386,20.386,0,0,1-7.85,8.8A22.074,22.074,0,0,1,1591.3,237.7Zm-.1-5.4q7.7,0,11.9-5.1t4.2-14.7q0-9.4-4.25-14.65t-11.75-5.25q-7.6,0-11.8,5.25t-4.2,14.65q0,9.6,4.1,14.7T1591.2,232.3ZM30.8,323.3a20.436,20.436,0,0,1,11.3,3.15,20.783,20.783,0,0,1,7.6,8.9,31.094,31.094,0,0,1,2.7,13.35,30.179,30.179,0,0,1-2.7,13.15A20.112,20.112,0,0,1,30.8,373.7a19.634,19.634,0,0,1-10.2-2.55,16.014,16.014,0,0,1-6.5-7.45v24.7a3.149,3.149,0,0,1-.8,2.25,2.875,2.875,0,0,1-2.2.85A2.922,2.922,0,0,1,8,388.4V326.6a2.922,2.922,0,0,1,3.1-3.1,2.875,2.875,0,0,1,2.2.85,3.149,3.149,0,0,1,.8,2.25v6.7a16.014,16.014,0,0,1,6.5-7.45A19.634,19.634,0,0,1,30.8,323.3Zm-.9,45q7.7,0,11.95-5.15T46.1,348.7q0-9.5-4.25-14.8T30,328.6q-7.6,0-11.75,5.2T14.1,348.5q0,9.5,4.1,14.65T29.9,368.3Zm54.6-45q8.8,0,13.15,4.6T102,341.8v28.5a3.149,3.149,0,0,1-.8,2.25,3.272,3.272,0,0,1-4.4,0,3.149,3.149,0,0,1-.8-2.25v-6a15.722,15.722,0,0,1-6.1,6.95,17.256,17.256,0,0,1-9.2,2.45,19.371,19.371,0,0,1-8.6-1.9,15.162,15.162,0,0,1-6.15-5.3A13.305,13.305,0,0,1,63.7,359q0-5.4,2.8-8.4t9.3-4.3A97.406,97.406,0,0,1,93.9,345H96v-3.7q0-6.6-2.7-9.65t-8.5-3.05a27.611,27.611,0,0,0-14.1,3.9q-.3.2-1.55,1.05a4.047,4.047,0,0,1-2.15.85,2.088,2.088,0,0,1-1.65-.75,2.725,2.725,0,0,1-.65-1.85q0-2.2,3.5-4.3a31.245,31.245,0,0,1,7.8-3.1A34.2,34.2,0,0,1,84.5,323.3Zm-3.3,45.1A13.99,13.99,0,0,0,91.85,364,15.67,15.67,0,0,0,96,352.8v-3.3H94.1a101.628,101.628,0,0,0-14.7.8q-5.1.8-7.2,2.75a7.332,7.332,0,0,0-2.1,5.65,8.771,8.771,0,0,0,3.2,6.95A11.7,11.7,0,0,0,81.2,368.4Zm59.3-44.9a4.232,4.232,0,0,1,2.7.5,2.34,2.34,0,0,1,.8,2q0,2.5-3,2.8l-3,.3q-7.1.7-10.55,5.1A16.207,16.207,0,0,0,124,344.5v25.9a3.113,3.113,0,0,1-.8,2.3,2.973,2.973,0,0,1-2.2.8,3.149,3.149,0,0,1-2.25-.8,3.006,3.006,0,0,1-.85-2.3V326.6a3.006,3.006,0,0,1,.85-2.3,3.149,3.149,0,0,1,2.25-.8,2.84,2.84,0,0,1,2.1.8,2.973,2.973,0,0,1,.8,2.2V333q4.1-8.6,15.2-9.4Zm36,44.9q2.8.3,2.8,2.6a2.279,2.279,0,0,1-.9,1.9,4.385,4.385,0,0,1-2.9.6l-2.8-.2q-7.6-.5-11.25-4.65T157.8,356V329.4h-7.6a2.682,2.682,0,0,1-1.9-.65,2.273,2.273,0,0,1-.7-1.75,2.436,2.436,0,0,1,.7-1.8,2.567,2.567,0,0,1,1.9-.7h7.6V312.1a3.113,3.113,0,0,1,.8-2.3,2.973,2.973,0,0,1,2.2-.8,3.149,3.149,0,0,1,2.25.8,3.006,3.006,0,0,1,.85,2.3v12.4H176a2.706,2.706,0,0,1,2,.7,2.436,2.436,0,0,1,.7,1.8,2.273,2.273,0,0,1-.7,1.75,2.832,2.832,0,0,1-2,.65H163.9v26.9q0,6.2,2.4,8.85t7.5,3.05Zm14.7,5.1a3.149,3.149,0,0,1-2.25-.8,3.006,3.006,0,0,1-.85-2.3V326.6a3.006,3.006,0,0,1,.85-2.3,3.149,3.149,0,0,1,2.25-.8,2.973,2.973,0,0,1,2.2.8,3.113,3.113,0,0,1,.8,2.3v43.8a3.113,3.113,0,0,1-.8,2.3A2.973,2.973,0,0,1,191.2,373.5Zm0-61.3a4.5,4.5,0,0,1-3.25-1.2,4.106,4.106,0,0,1-1.25-3.1,4.23,4.23,0,0,1,1.25-3.2,5,5,0,0,1,6.5,0,4.23,4.23,0,0,1,1.25,3.2,4.106,4.106,0,0,1-1.25,3.1A4.5,4.5,0,0,1,191.2,312.2Zm38.5,61.5a22.264,22.264,0,0,1-11.8-3.1,20.7,20.7,0,0,1-7.9-8.8,32.135,32.135,0,0,1,.05-26.35,21.525,21.525,0,0,1,8-8.95,21.986,21.986,0,0,1,11.85-3.2,27.52,27.52,0,0,1,7.4,1,20.21,20.21,0,0,1,6.4,3,11.253,11.253,0,0,1,2.55,2.35,3.8,3.8,0,0,1,.75,2.25,2.668,2.668,0,0,1-.6,1.8,1.9,1.9,0,0,1-1.5.7q-1,0-3.2-1.7a26.06,26.06,0,0,0-5.2-3,16.149,16.149,0,0,0-6.3-1.1q-7.8,0-12.2,5.35t-4.4,14.75q0,9.3,4.35,14.45t12.15,5.15a16.068,16.068,0,0,0,6.35-1.1,40.542,40.542,0,0,0,5.55-3q.9-.6,1.75-1.1a2.939,2.939,0,0,1,1.35-.5,2,2,0,0,1,1.6.7,2.523,2.523,0,0,1,.6,1.7,3.322,3.322,0,0,1-.7,2.1,13.2,13.2,0,0,1-2.7,2.3,21,21,0,0,1-6.55,3.15A26.62,26.62,0,0,1,229.7,373.7Zm31.2-.2a3.149,3.149,0,0,1-2.25-.8,3.006,3.006,0,0,1-.85-2.3V326.6a3.006,3.006,0,0,1,.85-2.3,3.149,3.149,0,0,1,2.25-.8,2.973,2.973,0,0,1,2.2.8,3.113,3.113,0,0,1,.8,2.3v43.8a3.113,3.113,0,0,1-.8,2.3A2.973,2.973,0,0,1,260.9,373.5Zm0-61.3a4.5,4.5,0,0,1-3.25-1.2,4.106,4.106,0,0,1-1.25-3.1,4.23,4.23,0,0,1,1.25-3.2,5,5,0,0,1,6.5,0,4.23,4.23,0,0,1,1.25,3.2,4.106,4.106,0,0,1-1.25,3.1A4.5,4.5,0,0,1,260.9,312.2Zm41.9,11.1a20.436,20.436,0,0,1,11.3,3.15,20.783,20.783,0,0,1,7.6,8.9,31.1,31.1,0,0,1,2.7,13.35,30.179,30.179,0,0,1-2.7,13.15,20.112,20.112,0,0,1-18.9,11.85,19.634,19.634,0,0,1-10.2-2.55,16.014,16.014,0,0,1-6.5-7.45v24.7a3.149,3.149,0,0,1-.8,2.25,2.875,2.875,0,0,1-2.2.85,2.922,2.922,0,0,1-3.1-3.1V326.6a2.922,2.922,0,0,1,3.1-3.1,2.875,2.875,0,0,1,2.2.85,3.149,3.149,0,0,1,.8,2.25v6.7a16.014,16.014,0,0,1,6.5-7.45A19.634,19.634,0,0,1,302.8,323.3Zm-.9,45q7.7,0,11.95-5.15t4.25-14.45q0-9.5-4.25-14.8T302,328.6q-7.6,0-11.75,5.2t-4.15,14.7q0,9.5,4.1,14.65T301.9,368.3Zm54.6-45q8.8,0,13.15,4.6T374,341.8v28.5a3.149,3.149,0,0,1-.8,2.25,3.272,3.272,0,0,1-4.4,0,3.149,3.149,0,0,1-.8-2.25v-6a15.722,15.722,0,0,1-6.1,6.95,17.256,17.256,0,0,1-9.2,2.45,19.371,19.371,0,0,1-8.6-1.9,15.162,15.162,0,0,1-6.15-5.3,13.305,13.305,0,0,1-2.25-7.5q0-5.4,2.8-8.4t9.3-4.3a97.407,97.407,0,0,1,18.1-1.3H368v-3.7q0-6.6-2.7-9.65t-8.5-3.05a27.611,27.611,0,0,0-14.1,3.9q-.3.2-1.55,1.05a4.047,4.047,0,0,1-2.15.85,2.088,2.088,0,0,1-1.65-.75,2.725,2.725,0,0,1-.65-1.85q0-2.2,3.5-4.3a31.245,31.245,0,0,1,7.8-3.1A34.2,34.2,0,0,1,356.5,323.3Zm-3.3,45.1a13.99,13.99,0,0,0,10.65-4.4A15.67,15.67,0,0,0,368,352.8v-3.3h-1.9a101.628,101.628,0,0,0-14.7.8q-5.1.8-7.2,2.75a7.332,7.332,0,0,0-2.1,5.65,8.771,8.771,0,0,0,3.2,6.95A11.7,11.7,0,0,0,353.2,368.4Zm57.8,0q2.8.3,2.8,2.6a2.279,2.279,0,0,1-.9,1.9,4.385,4.385,0,0,1-2.9.6l-2.8-.2q-7.6-.5-11.25-4.65T392.3,356V329.4h-7.6a2.682,2.682,0,0,1-1.9-.65,2.273,2.273,0,0,1-.7-1.75,2.437,2.437,0,0,1,.7-1.8,2.567,2.567,0,0,1,1.9-.7h7.6V312.1a3.113,3.113,0,0,1,.8-2.3,2.973,2.973,0,0,1,2.2-.8,3.149,3.149,0,0,1,2.25.8,3.006,3.006,0,0,1,.85,2.3v12.4h12.1a2.706,2.706,0,0,1,2,.7,2.436,2.436,0,0,1,.7,1.8,2.273,2.273,0,0,1-.7,1.75,2.832,2.832,0,0,1-2,.65H398.4v26.9q0,6.2,2.4,8.85t7.5,3.05Zm48.8-5.8a1.987,1.987,0,0,1,1.55.75,2.589,2.589,0,0,1,.65,1.75q0,2.2-3.4,4.3a29.186,29.186,0,0,1-15.2,4.3q-11.1,0-17.5-6.7t-6.4-18.4a29.464,29.464,0,0,1,2.85-13.25,21.189,21.189,0,0,1,8-8.9,22.25,22.25,0,0,1,11.85-3.15q9.4,0,14.85,6.05T462.5,346a3.761,3.761,0,0,1-.8,2.65,3.436,3.436,0,0,1-2.6.85H425.8q.3,9.2,4.8,14t12.7,4.8a19.635,19.635,0,0,0,7.2-1.15,48.032,48.032,0,0,0,6.2-3.05A7.146,7.146,0,0,1,459.8,362.6Zm-17.6-34.3q-7,0-11.2,4.4T426,345h30.9q-.2-8-4-12.35T442.2,328.3Zm77.4-5q8.8,0,13.15,4.6t4.35,13.9v28.5a3.149,3.149,0,0,1-.8,2.25,3.272,3.272,0,0,1-4.4,0,3.149,3.149,0,0,1-.8-2.25v-6a15.723,15.723,0,0,1-6.1,6.95,17.256,17.256,0,0,1-9.2,2.45,19.371,19.371,0,0,1-8.6-1.9,15.162,15.162,0,0,1-6.15-5.3,13.305,13.305,0,0,1-2.25-7.5q0-5.4,2.8-8.4t9.3-4.3A97.406,97.406,0,0,1,529,345h2.1v-3.7q0-6.6-2.7-9.65t-8.5-3.05a27.611,27.611,0,0,0-14.1,3.9q-.3.2-1.55,1.05a4.047,4.047,0,0,1-2.15.85,2.088,2.088,0,0,1-1.65-.75,2.725,2.725,0,0,1-.65-1.85q0-2.2,3.5-4.3a31.245,31.245,0,0,1,7.8-3.1A34.2,34.2,0,0,1,519.6,323.3Zm-3.3,45.1a13.99,13.99,0,0,0,10.65-4.4,15.67,15.67,0,0,0,4.15-11.2v-3.3h-1.9a101.629,101.629,0,0,0-14.7.8q-5.1.8-7.2,2.75a7.332,7.332,0,0,0-2.1,5.65,8.771,8.771,0,0,0,3.2,6.95A11.7,11.7,0,0,0,516.3,368.4Zm59.4-45.1q17.5,0,17.5,18.8v28.3a3.149,3.149,0,0,1-.8,2.25,2.875,2.875,0,0,1-2.2.85,2.922,2.922,0,0,1-3.1-3.1V342.5q0-7.2-2.9-10.5t-9.2-3.3q-7.2,0-11.55,4.4t-4.35,11.8v25.5a3.149,3.149,0,0,1-.8,2.25,2.875,2.875,0,0,1-2.2.85,2.922,2.922,0,0,1-3.1-3.1V326.6a2.922,2.922,0,0,1,3.1-3.1,2.84,2.84,0,0,1,2.1.8,2.973,2.973,0,0,1,.8,2.2v6.3a16.2,16.2,0,0,1,6.65-7.05A20.129,20.129,0,0,1,575.7,323.3ZM647.3,302a2.922,2.922,0,0,1,3.1,3.1v65.2a2.922,2.922,0,0,1-3.1,3.1,2.875,2.875,0,0,1-2.2-.85,3.149,3.149,0,0,1-.8-2.25v-6.6a16.014,16.014,0,0,1-6.5,7.45,19.634,19.634,0,0,1-10.2,2.55,20.436,20.436,0,0,1-11.3-3.15,20.783,20.783,0,0,1-7.6-8.9A31.1,31.1,0,0,1,606,348.3a30.179,30.179,0,0,1,2.7-13.15,20.112,20.112,0,0,1,18.9-11.85,19.634,19.634,0,0,1,10.2,2.55,16.014,16.014,0,0,1,6.5,7.45V305.1a3.149,3.149,0,0,1,.8-2.25A2.875,2.875,0,0,1,647.3,302Zm-18.9,66.3q7.6,0,11.75-5.15t4.15-14.65q0-9.5-4.1-14.7t-11.7-5.2q-7.7,0-11.9,5.15t-4.2,14.55q0,9.5,4.2,14.75T628.4,368.3Zm82.4-45q8.8,0,13.15,4.6t4.35,13.9v28.5a3.149,3.149,0,0,1-.8,2.25,3.272,3.272,0,0,1-4.4,0,3.149,3.149,0,0,1-.8-2.25v-6a15.723,15.723,0,0,1-6.1,6.95,17.256,17.256,0,0,1-9.2,2.45,19.371,19.371,0,0,1-8.6-1.9,15.162,15.162,0,0,1-6.15-5.3A13.305,13.305,0,0,1,690,359q0-5.4,2.8-8.4t9.3-4.3a97.406,97.406,0,0,1,18.1-1.3h2.1v-3.7q0-6.6-2.7-9.65t-8.5-3.05a27.611,27.611,0,0,0-14.1,3.9q-.3.2-1.55,1.05a4.047,4.047,0,0,1-2.15.85,2.088,2.088,0,0,1-1.65-.75,2.725,2.725,0,0,1-.65-1.85q0-2.2,3.5-4.3a31.245,31.245,0,0,1,7.8-3.1A34.2,34.2,0,0,1,710.8,323.3Zm-3.3,45.1a13.99,13.99,0,0,0,10.65-4.4,15.67,15.67,0,0,0,4.15-11.2v-3.3h-1.9a101.629,101.629,0,0,0-14.7.8q-5.1.8-7.2,2.75a7.332,7.332,0,0,0-2.1,5.65,8.771,8.771,0,0,0,3.2,6.95A11.7,11.7,0,0,0,707.5,368.4ZM767,323.3a20.436,20.436,0,0,1,11.3,3.15,20.783,20.783,0,0,1,7.6,8.9,31.1,31.1,0,0,1,2.7,13.35,30.179,30.179,0,0,1-2.7,13.15A20.112,20.112,0,0,1,767,373.7a19.634,19.634,0,0,1-10.2-2.55,16.014,16.014,0,0,1-6.5-7.45v24.7a3.149,3.149,0,0,1-.8,2.25,2.875,2.875,0,0,1-2.2.85,2.922,2.922,0,0,1-3.1-3.1V326.6a2.922,2.922,0,0,1,3.1-3.1,2.875,2.875,0,0,1,2.2.85,3.149,3.149,0,0,1,.8,2.25v6.7a16.014,16.014,0,0,1,6.5-7.45A19.634,19.634,0,0,1,767,323.3Zm-.9,45q7.7,0,11.95-5.15t4.25-14.45q0-9.5-4.25-14.8t-11.85-5.3q-7.6,0-11.75,5.2t-4.15,14.7q0,9.5,4.1,14.65T766.1,368.3Zm58.2-45a20.436,20.436,0,0,1,11.3,3.15,20.783,20.783,0,0,1,7.6,8.9,31.1,31.1,0,0,1,2.7,13.35,30.179,30.179,0,0,1-2.7,13.15,20.112,20.112,0,0,1-18.9,11.85,19.634,19.634,0,0,1-10.2-2.55,16.014,16.014,0,0,1-6.5-7.45v24.7a3.149,3.149,0,0,1-.8,2.25,2.875,2.875,0,0,1-2.2.85,2.922,2.922,0,0,1-3.1-3.1V326.6a2.922,2.922,0,0,1,3.1-3.1,2.875,2.875,0,0,1,2.2.85,3.149,3.149,0,0,1,.8,2.25v6.7a16.014,16.014,0,0,1,6.5-7.45A19.634,19.634,0,0,1,824.3,323.3Zm-.9,45q7.7,0,11.95-5.15t4.25-14.45q0-9.5-4.25-14.8t-11.85-5.3q-7.6,0-11.75,5.2t-4.15,14.7q0,9.5,4.1,14.65T823.4,368.3Zm38.5,5.2a3.149,3.149,0,0,1-2.25-.8,3.006,3.006,0,0,1-.85-2.3V305.1a3.006,3.006,0,0,1,.85-2.3,3.149,3.149,0,0,1,2.25-.8,2.845,2.845,0,0,1,3,3.1v65.3a2.845,2.845,0,0,1-3,3.1Zm54.7-48.2a2.694,2.694,0,0,1,2.6-1.8,2.94,2.94,0,0,1,2,.8,2.463,2.463,0,0,1,.9,1.9,2.866,2.866,0,0,1-.3,1.3l-28.3,62.1a2.7,2.7,0,0,1-2.6,1.7,2.98,2.98,0,0,1-1.95-.7,2.226,2.226,0,0,1-.85-1.8,2.662,2.662,0,0,1,.3-1.2l7.1-15.5L875,327.5a2.663,2.663,0,0,1-.3-1.2,2.558,2.558,0,0,1,1.05-2.05,3.513,3.513,0,0,1,2.25-.85,2.582,2.582,0,0,1,2.6,1.8l18,40.4Zm107.3.2a2.532,2.532,0,0,1,2.5-1.9,3.062,3.062,0,0,1,2.1.8,2.565,2.565,0,0,1,.9,2,6.006,6.006,0,0,1-.2,1L1012.5,371a3.269,3.269,0,0,1-1.35,1.7,3.8,3.8,0,0,1-4.1,0,3.269,3.269,0,0,1-1.35-1.7l-14.8-38.2L976.2,371a3.269,3.269,0,0,1-1.35,1.7,3.8,3.8,0,0,1-4.1,0,3.269,3.269,0,0,1-1.35-1.7l-16.8-43.5a3.29,3.29,0,0,1-.2-1,2.7,2.7,0,0,1,1.05-2.1,3.4,3.4,0,0,1,2.25-.9,2.592,2.592,0,0,1,2.6,1.9L972.9,365,988,325.7a3.353,3.353,0,0,1,1.3-1.7,3.226,3.226,0,0,1,1.8-.6,3.142,3.142,0,0,1,1.85.6,3.458,3.458,0,0,1,1.25,1.7l14.9,39.2Zm19.9,48a3.149,3.149,0,0,1-2.25-.8,3.006,3.006,0,0,1-.85-2.3V326.6a3.006,3.006,0,0,1,.85-2.3,3.149,3.149,0,0,1,2.25-.8,2.973,2.973,0,0,1,2.2.8,3.113,3.113,0,0,1,.8,2.3v43.8a3.113,3.113,0,0,1-.8,2.3A2.973,2.973,0,0,1,1043.8,373.5Zm0-61.3a4.5,4.5,0,0,1-3.25-1.2,4.106,4.106,0,0,1-1.25-3.1,4.23,4.23,0,0,1,1.25-3.2,5,5,0,0,1,6.5,0,4.23,4.23,0,0,1,1.25,3.2,4.106,4.106,0,0,1-1.25,3.1A4.5,4.5,0,0,1,1043.8,312.2Zm40.2,56.2q2.8.3,2.8,2.6a2.279,2.279,0,0,1-.9,1.9,4.385,4.385,0,0,1-2.9.6l-2.8-.2q-7.6-.5-11.25-4.65T1065.3,356V329.4h-7.6a2.682,2.682,0,0,1-1.9-.65,2.273,2.273,0,0,1-.7-1.75,2.436,2.436,0,0,1,.7-1.8,2.567,2.567,0,0,1,1.9-.7h7.6V312.1a3.113,3.113,0,0,1,.8-2.3,2.973,2.973,0,0,1,2.2-.8,3.149,3.149,0,0,1,2.25.8,3.006,3.006,0,0,1,.85,2.3v12.4h12.1a2.706,2.706,0,0,1,2,.7,2.436,2.436,0,0,1,.7,1.8,2.273,2.273,0,0,1-.7,1.75,2.832,2.832,0,0,1-2,.65h-12.1v26.9q0,6.2,2.4,8.85t7.5,3.05Zm34.3-45.1q17.5,0,17.5,18.8v28.3a3.149,3.149,0,0,1-.8,2.25,2.875,2.875,0,0,1-2.2.85,2.922,2.922,0,0,1-3.1-3.1V342.5q0-7.2-2.9-10.5t-9.2-3.3q-7.2,0-11.55,4.4t-4.35,11.8v25.5a3.149,3.149,0,0,1-.8,2.25,2.875,2.875,0,0,1-2.2.85,2.922,2.922,0,0,1-3.1-3.1V305.1a2.922,2.922,0,0,1,3.1-3.1,2.875,2.875,0,0,1,2.2.85,3.149,3.149,0,0,1,.8,2.25v27.5a16.019,16.019,0,0,1,6.65-6.9A20.254,20.254,0,0,1,1118.3,323.3Zm94.8.2a2.922,2.922,0,0,1,3.1,3.1v43.8a2.922,2.922,0,0,1-3.1,3.1,2.75,2.75,0,0,1-2.1-.85,3.149,3.149,0,0,1-.8-2.25v-6.1a16.062,16.062,0,0,1-6.55,7,19.28,19.28,0,0,1-9.65,2.4q-8.6,0-12.95-4.75t-4.35-14.05V326.6a2.922,2.922,0,0,1,3.1-3.1,2.875,2.875,0,0,1,2.2.85,3.149,3.149,0,0,1,.8,2.25v27.9q0,7.1,2.85,10.45t8.95,3.35a14.837,14.837,0,0,0,11.25-4.45q4.25-4.45,4.25-11.85V326.6a3.149,3.149,0,0,1,.8-2.25A2.875,2.875,0,0,1,1213.1,323.5Zm34.8,50.2a30.06,30.06,0,0,1-8.25-1.15,26.408,26.408,0,0,1-7.15-3.15,12.4,12.4,0,0,1-2.65-2.25,3.378,3.378,0,0,1-.75-2.15,2.408,2.408,0,0,1,.65-1.7,2.044,2.044,0,0,1,1.55-.7,7.146,7.146,0,0,1,3.1,1.5,32.7,32.7,0,0,0,5.95,3.1,21.051,21.051,0,0,0,7.65,1.2q5.9,0,9.2-2.15a6.912,6.912,0,0,0,3.3-6.15,6.263,6.263,0,0,0-1.2-3.95,9.526,9.526,0,0,0-4-2.7,48.615,48.615,0,0,0-8-2.25q-8.9-2-12.65-5.15a10.471,10.471,0,0,1-3.75-8.45,12.561,12.561,0,0,1,5-10.35q5-3.95,13-3.95a27.351,27.351,0,0,1,7.45,1,19.09,19.09,0,0,1,6.15,2.9q3.5,2.4,3.5,4.7a2.589,2.589,0,0,1-.65,1.75,1.988,1.988,0,0,1-1.55.75,6.364,6.364,0,0,1-3.1-1.6,30.292,30.292,0,0,0-5.35-3.05,17.059,17.059,0,0,0-6.75-1.15,13.407,13.407,0,0,0-8.3,2.35,7.552,7.552,0,0,0-3.1,6.35,6.472,6.472,0,0,0,1.05,3.8,8.574,8.574,0,0,0,3.6,2.65,41.1,41.1,0,0,0,7.35,2.25,52.256,52.256,0,0,1,10.6,3.4,12.619,12.619,0,0,1,5.3,4.3,12.517,12.517,0,0,1-3.55,16.25Q1256.4,373.7,1247.9,373.7Zm34.7-.2a4.549,4.549,0,0,1-3.35-1.35,5.083,5.083,0,0,1,0-6.9,4.549,4.549,0,0,1,3.35-1.35,4.43,4.43,0,0,1,3.25,1.35,5.083,5.083,0,0,1,0,6.9A4.43,4.43,0,0,1,1282.6,373.5Zm97-36.6a2.572,2.572,0,0,1,2.7,2.7v26.5a3.609,3.609,0,0,1-2.3,3.6,42.44,42.44,0,0,1-9.95,3,63.988,63.988,0,0,1-11.85,1.1,35.243,35.243,0,0,1-17.75-4.25,27.843,27.843,0,0,1-11.4-12.4q-3.95-8.15-3.95-19.45,0-11.1,3.9-19.2a28.468,28.468,0,0,1,11.2-12.45,33.173,33.173,0,0,1,17.3-4.35,37.557,37.557,0,0,1,13.1,2.25,25.335,25.335,0,0,1,10,6.45,4.016,4.016,0,0,1,1.3,2.9,3.077,3.077,0,0,1-.6,1.9,1.81,1.81,0,0,1-1.5.8,4.326,4.326,0,0,1-2.2-1,35.58,35.58,0,0,0-9.8-6.1,29.016,29.016,0,0,0-10.3-1.7q-12.4,0-19.15,7.95t-6.75,22.55q0,14.9,6.8,22.8t19.8,7.9a56.949,56.949,0,0,0,9.85-.85,40.147,40.147,0,0,0,8.65-2.45v-23h-16.2a3.036,3.036,0,0,1-2.15-.7,2.782,2.782,0,0,1,0-3.8,3.036,3.036,0,0,1,2.15-.7Zm38.3,36.8a22,22,0,0,1-11.75-3.1,20.811,20.811,0,0,1-7.85-8.8,32.988,32.988,0,0,1,0-26.6,20.811,20.811,0,0,1,7.85-8.8,23.723,23.723,0,0,1,23.45,0,20.386,20.386,0,0,1,7.85,8.8,33.537,33.537,0,0,1,0,26.6,20.386,20.386,0,0,1-7.85,8.8A22.074,22.074,0,0,1,1417.9,373.7Zm-.1-5.4q7.7,0,11.9-5.1t4.2-14.7q0-9.4-4.25-14.65t-11.75-5.25q-7.6,0-11.8,5.25t-4.2,14.65q0,9.6,4.1,14.7T1417.8,368.3Zm54.6,5.4a22,22,0,0,1-11.75-3.1,20.811,20.811,0,0,1-7.85-8.8,32.988,32.988,0,0,1,0-26.6,20.811,20.811,0,0,1,7.85-8.8,23.723,23.723,0,0,1,23.45,0,20.386,20.386,0,0,1,7.85,8.8,33.537,33.537,0,0,1,0,26.6,20.386,20.386,0,0,1-7.85,8.8A22.074,22.074,0,0,1,1472.4,373.7Zm-.1-5.4q7.7,0,11.9-5.1t4.2-14.7q0-9.4-4.25-14.65t-11.75-5.25q-7.6,0-11.8,5.25t-4.2,14.65q0,9.6,4.1,14.7T1472.3,368.3Zm73.5-66.3a2.922,2.922,0,0,1,3.1,3.1v65.2a2.922,2.922,0,0,1-3.1,3.1,2.875,2.875,0,0,1-2.2-.85,3.149,3.149,0,0,1-.8-2.25v-6.6a16.014,16.014,0,0,1-6.5,7.45,19.633,19.633,0,0,1-10.2,2.55,20.436,20.436,0,0,1-11.3-3.15,20.784,20.784,0,0,1-7.6-8.9,31.1,31.1,0,0,1-2.7-13.35,30.18,30.18,0,0,1,2.7-13.15,20.112,20.112,0,0,1,18.9-11.85,19.633,19.633,0,0,1,10.2,2.55,16.014,16.014,0,0,1,6.5,7.45V305.1a3.149,3.149,0,0,1,.8-2.25A2.875,2.875,0,0,1,1545.8,302Zm-18.9,66.3q7.6,0,11.75-5.15t4.15-14.65q0-9.5-4.1-14.7t-11.7-5.2q-7.7,0-11.9,5.15t-4.2,14.55q0,9.5,4.2,14.75T1526.9,368.3Zm66.3,5.2a3.149,3.149,0,0,1-2.25-.8,3.006,3.006,0,0,1-.85-2.3V305.1a3.006,3.006,0,0,1,.85-2.3,3.149,3.149,0,0,1,2.25-.8,2.845,2.845,0,0,1,3,3.1v65.3a2.845,2.845,0,0,1-3,3.1Zm55.3-50a2.922,2.922,0,0,1,3.1,3.1v43.8a2.922,2.922,0,0,1-3.1,3.1,2.75,2.75,0,0,1-2.1-.85,3.149,3.149,0,0,1-.8-2.25v-6.1a16.062,16.062,0,0,1-6.55,7,19.28,19.28,0,0,1-9.65,2.4q-8.6,0-12.95-4.75t-4.35-14.05V326.6a2.922,2.922,0,0,1,3.1-3.1,2.875,2.875,0,0,1,2.2.85,3.149,3.149,0,0,1,.8,2.25v27.9q0,7.1,2.85,10.45t8.95,3.35a14.837,14.837,0,0,0,11.25-4.45q4.25-4.45,4.25-11.85V326.6a3.149,3.149,0,0,1,.8-2.25A2.875,2.875,0,0,1,1648.5,323.5Zm38.5,50.2a22.264,22.264,0,0,1-11.8-3.1,20.7,20.7,0,0,1-7.9-8.8,32.136,32.136,0,0,1,.05-26.35,21.525,21.525,0,0,1,8-8.95,21.986,21.986,0,0,1,11.85-3.2,27.521,27.521,0,0,1,7.4,1,20.211,20.211,0,0,1,6.4,3,11.253,11.253,0,0,1,2.55,2.35,3.8,3.8,0,0,1,.75,2.25,2.668,2.668,0,0,1-.6,1.8,1.9,1.9,0,0,1-1.5.7q-1,0-3.2-1.7a26.057,26.057,0,0,0-5.2-3,16.148,16.148,0,0,0-6.3-1.1q-7.8,0-12.2,5.35t-4.4,14.75q0,9.3,4.35,14.45t12.15,5.15a16.068,16.068,0,0,0,6.35-1.1,40.544,40.544,0,0,0,5.55-3q.9-.6,1.75-1.1a2.939,2.939,0,0,1,1.35-.5,2,2,0,0,1,1.6.7,2.523,2.523,0,0,1,.6,1.7,3.322,3.322,0,0,1-.7,2.1,13.2,13.2,0,0,1-2.7,2.3,21,21,0,0,1-6.55,3.15A26.621,26.621,0,0,1,1687,373.7Zm64.9-5.5a3.435,3.435,0,0,1,1.3,2.5,2.764,2.764,0,0,1-.8,1.95,2.523,2.523,0,0,1-1.9.85,3.381,3.381,0,0,1-2.1-.9l-27.2-23.2v21a2.845,2.845,0,0,1-3,3.1,3.149,3.149,0,0,1-2.25-.8,3.006,3.006,0,0,1-.85-2.3V305.1a3.006,3.006,0,0,1,.85-2.3,3.149,3.149,0,0,1,2.25-.8,2.845,2.845,0,0,1,3,3.1v41.8l24.9-22.4a3.381,3.381,0,0,1,2.1-.9,2.9,2.9,0,0,1,2.9,2.9,2.851,2.851,0,0,1-1.2,2.4L1728.3,348Zm14.6-12a1.76,1.76,0,0,1-1.35-.6,2.275,2.275,0,0,1-.55-1.6l-1.9-48.3a3.21,3.21,0,0,1,1-2.65,3.891,3.891,0,0,1,2.8-1.05,3.762,3.762,0,0,1,2.7,1.05,3.336,3.336,0,0,1,1,2.75l-1.8,48.2a2.886,2.886,0,0,1-.6,1.6A1.613,1.613,0,0,1,1766.5,356.2Zm.1,17.3a4.549,4.549,0,0,1-3.35-1.35,5.083,5.083,0,0,1,0-6.9,4.549,4.549,0,0,1,3.35-1.35,4.43,4.43,0,0,1,3.25,1.35,5.083,5.083,0,0,1,0,6.9A4.43,4.43,0,0,1,1766.6,373.5Z" transform="translate(230 512.236)" fill="#134172"/>
  </g>
</svg>
